%TF.GenerationSoftware,KiCad,Pcbnew,(6.0.4)*%
%TF.CreationDate,2022-06-08T08:46:44+05:30*%
%TF.ProjectId,Full PCB,46756c6c-2050-4434-922e-6b696361645f,Group 18*%
%TF.SameCoordinates,Original*%
%TF.FileFunction,Soldermask,Bot*%
%TF.FilePolarity,Negative*%
%FSLAX46Y46*%
G04 Gerber Fmt 4.6, Leading zero omitted, Abs format (unit mm)*
G04 Created by KiCad (PCBNEW (6.0.4)) date 2022-06-08 08:46:44*
%MOMM*%
%LPD*%
G01*
G04 APERTURE LIST*
%ADD10R,1.600000X1.600000*%
%ADD11C,1.600000*%
%ADD12R,2.000000X2.000000*%
%ADD13C,2.000000*%
%ADD14C,1.500000*%
%ADD15C,3.800000*%
%ADD16R,2.600000X2.600000*%
%ADD17C,2.600000*%
%ADD18R,3.300000X6.600000*%
%ADD19O,3.300000X6.600000*%
%ADD20R,1.700000X1.700000*%
%ADD21O,1.700000X1.700000*%
%ADD22O,1.600000X1.600000*%
%ADD23R,1.050000X1.500000*%
%ADD24O,1.050000X1.500000*%
%ADD25C,2.500000*%
%ADD26R,1.905000X2.000000*%
%ADD27O,1.905000X2.000000*%
%ADD28R,6.600000X3.300000*%
%ADD29O,6.600000X3.300000*%
%ADD30R,1.560000X1.560000*%
%ADD31C,1.560000*%
G04 APERTURE END LIST*
D10*
%TO.C,C1*%
X179793233Y-185910225D03*
D11*
X179793233Y-183410225D03*
%TD*%
D12*
%TO.C,BZ1*%
X349868233Y-213625000D03*
D13*
X357468233Y-213625000D03*
%TD*%
%TO.C,SW2*%
X404750000Y-150750000D03*
X404750000Y-157250000D03*
X409250000Y-150750000D03*
X409250000Y-157250000D03*
%TD*%
D10*
%TO.C,C3*%
X197703233Y-185910225D03*
D11*
X197703233Y-183410225D03*
%TD*%
D14*
%TO.C,Crystal2*%
X327768233Y-157625000D03*
X331568233Y-157625000D03*
%TD*%
D10*
%TO.C,C13*%
X233793233Y-168865337D03*
D11*
X233793233Y-166365337D03*
%TD*%
D10*
%TO.C,C18*%
X326463121Y-147625000D03*
D11*
X328963121Y-147625000D03*
%TD*%
D14*
%TO.C,Crystal1*%
X274768233Y-157125000D03*
X278568233Y-157125000D03*
%TD*%
D15*
%TO.C,14.8V1*%
X244693233Y-135000000D03*
X212893233Y-135000000D03*
D16*
X200993233Y-135000000D03*
D17*
X256593233Y-135000000D03*
%TD*%
D18*
%TO.C,LCD1*%
X374293233Y-125000000D03*
D19*
X364293233Y-125000000D03*
X354293233Y-125000000D03*
X344293233Y-125000000D03*
X334293233Y-125000000D03*
X324293233Y-125000000D03*
%TD*%
D20*
%TO.C,DCMotor1*%
X408668233Y-202205000D03*
D21*
X408668233Y-199665000D03*
X408668233Y-197125000D03*
X408668233Y-194585000D03*
%TD*%
D10*
%TO.C,U5*%
X325868233Y-201425000D03*
D22*
X328408233Y-201425000D03*
X330948233Y-201425000D03*
X333488233Y-201425000D03*
X333488233Y-193805000D03*
X330948233Y-193805000D03*
X328408233Y-193805000D03*
X325868233Y-193805000D03*
%TD*%
D23*
%TO.C,Q1*%
X342438233Y-209265000D03*
D24*
X341168233Y-209265000D03*
X339898233Y-209265000D03*
%TD*%
D10*
%TO.C,C15*%
X273463121Y-147625000D03*
D11*
X275963121Y-147625000D03*
%TD*%
D10*
%TO.C,C14*%
X242793233Y-168865337D03*
D11*
X242793233Y-166365337D03*
%TD*%
D20*
%TO.C,Servo2*%
X385543233Y-118975000D03*
D21*
X388083233Y-118975000D03*
%TD*%
D25*
%TO.C,REF\u002A\u002A*%
X415000000Y-275000000D03*
%TD*%
D18*
%TO.C,RXD1*%
X284793233Y-125000000D03*
D19*
X274793233Y-125000000D03*
%TD*%
D26*
%TO.C,U1*%
X192253233Y-176945000D03*
D27*
X194793233Y-176945000D03*
X197333233Y-176945000D03*
%TD*%
D28*
%TO.C,GSM1*%
X188793233Y-228000000D03*
D29*
X188793233Y-238000000D03*
%TD*%
D10*
%TO.C,SECONDARY1*%
X302793233Y-166500000D03*
D22*
X300253233Y-166500000D03*
X297713233Y-166500000D03*
X295173233Y-166500000D03*
X292633233Y-166500000D03*
X290093233Y-166500000D03*
X287553233Y-166500000D03*
X285013233Y-166500000D03*
X282473233Y-166500000D03*
X279933233Y-166500000D03*
X277393233Y-166500000D03*
X274853233Y-166500000D03*
X272313233Y-166500000D03*
X269773233Y-166500000D03*
X267233233Y-166500000D03*
X264693233Y-166500000D03*
X262153233Y-166500000D03*
X259613233Y-166500000D03*
X257073233Y-166500000D03*
X254533233Y-166500000D03*
X254533233Y-181740000D03*
X257073233Y-181740000D03*
X259613233Y-181740000D03*
X262153233Y-181740000D03*
X264693233Y-181740000D03*
X267233233Y-181740000D03*
X269773233Y-181740000D03*
X272313233Y-181740000D03*
X274853233Y-181740000D03*
X277393233Y-181740000D03*
X279933233Y-181740000D03*
X282473233Y-181740000D03*
X285013233Y-181740000D03*
X287553233Y-181740000D03*
X290093233Y-181740000D03*
X292633233Y-181740000D03*
X295173233Y-181740000D03*
X297713233Y-181740000D03*
X300253233Y-181740000D03*
X302793233Y-181740000D03*
%TD*%
D25*
%TO.C,REF\u002A\u002A*%
X173000000Y-275000000D03*
%TD*%
D10*
%TO.C,C12*%
X224793233Y-168865337D03*
D11*
X224793233Y-166365337D03*
%TD*%
D26*
%TO.C,U2*%
X209000000Y-175000000D03*
D27*
X206460000Y-175000000D03*
X203920000Y-175000000D03*
%TD*%
D30*
%TO.C,RV2*%
X352168233Y-226125000D03*
D31*
X354668233Y-231125000D03*
X357168233Y-226125000D03*
%TD*%
D11*
%TO.C,R3*%
X342748233Y-221625000D03*
D22*
X332588233Y-221625000D03*
%TD*%
D28*
%TO.C,OpticalEncoder1*%
X402168233Y-173625000D03*
D29*
X402168233Y-183625000D03*
%TD*%
D10*
%TO.C,U6*%
X340293233Y-201425000D03*
D22*
X342833233Y-201425000D03*
X345373233Y-201425000D03*
X347913233Y-201425000D03*
X350453233Y-201425000D03*
X352993233Y-201425000D03*
X355533233Y-201425000D03*
X358073233Y-201425000D03*
X358073233Y-193805000D03*
X355533233Y-193805000D03*
X352993233Y-193805000D03*
X350453233Y-193805000D03*
X347913233Y-193805000D03*
X345373233Y-193805000D03*
X342833233Y-193805000D03*
X340293233Y-193805000D03*
%TD*%
D25*
%TO.C,REF\u002A\u002A*%
X174293233Y-109500000D03*
%TD*%
D10*
%TO.C,C17*%
X286668233Y-147625000D03*
D11*
X289168233Y-147625000D03*
%TD*%
D18*
%TO.C,IR1*%
X361793233Y-254500000D03*
D19*
X351793233Y-254500000D03*
%TD*%
D26*
%TO.C,U3*%
X220000000Y-175000000D03*
D27*
X217460000Y-175000000D03*
X214920000Y-175000000D03*
%TD*%
D11*
%TO.C,R2*%
X336668233Y-157125000D03*
D22*
X346828233Y-157125000D03*
%TD*%
D10*
%TO.C,MAIN1*%
X358793233Y-166500000D03*
D22*
X356253233Y-166500000D03*
X353713233Y-166500000D03*
X351173233Y-166500000D03*
X348633233Y-166500000D03*
X346093233Y-166500000D03*
X343553233Y-166500000D03*
X341013233Y-166500000D03*
X338473233Y-166500000D03*
X335933233Y-166500000D03*
X333393233Y-166500000D03*
X330853233Y-166500000D03*
X328313233Y-166500000D03*
X325773233Y-166500000D03*
X323233233Y-166500000D03*
X320693233Y-166500000D03*
X318153233Y-166500000D03*
X315613233Y-166500000D03*
X313073233Y-166500000D03*
X310533233Y-166500000D03*
X310533233Y-181740000D03*
X313073233Y-181740000D03*
X315613233Y-181740000D03*
X318153233Y-181740000D03*
X320693233Y-181740000D03*
X323233233Y-181740000D03*
X325773233Y-181740000D03*
X328313233Y-181740000D03*
X330853233Y-181740000D03*
X333393233Y-181740000D03*
X335933233Y-181740000D03*
X338473233Y-181740000D03*
X341013233Y-181740000D03*
X343553233Y-181740000D03*
X346093233Y-181740000D03*
X348633233Y-181740000D03*
X351173233Y-181740000D03*
X353713233Y-181740000D03*
X356253233Y-181740000D03*
X358793233Y-181740000D03*
%TD*%
D10*
%TO.C,C11*%
X215793233Y-168865337D03*
D11*
X215793233Y-166365337D03*
%TD*%
D10*
%TO.C,C20*%
X339668233Y-147625000D03*
D11*
X342168233Y-147625000D03*
%TD*%
D10*
%TO.C,C5*%
X216293233Y-185705113D03*
D11*
X216293233Y-183205113D03*
%TD*%
D10*
%TO.C,C2*%
X188793233Y-185910225D03*
D11*
X188793233Y-183410225D03*
%TD*%
D10*
%TO.C,C8*%
X188293233Y-168910225D03*
D11*
X188293233Y-166410225D03*
%TD*%
D10*
%TO.C,C19*%
X333168233Y-147625000D03*
D11*
X335668233Y-147625000D03*
%TD*%
D10*
%TO.C,C10*%
X206703233Y-168865337D03*
D11*
X206703233Y-166365337D03*
%TD*%
D10*
%TO.C,C6*%
X225293233Y-185705113D03*
D11*
X225293233Y-183205113D03*
%TD*%
D10*
%TO.C,C7*%
X179383233Y-168660225D03*
D11*
X179383233Y-166160225D03*
%TD*%
D18*
%TO.C,US1*%
X336793233Y-254500000D03*
D19*
X326793233Y-254500000D03*
X316793233Y-254500000D03*
X306793233Y-254500000D03*
X296793233Y-254500000D03*
X286793233Y-254500000D03*
X276793233Y-254500000D03*
X266793233Y-254500000D03*
X256793233Y-254500000D03*
X246793233Y-254500000D03*
X236793233Y-254500000D03*
X226793233Y-254500000D03*
X216793233Y-254500000D03*
X206793233Y-254500000D03*
X196793233Y-254500000D03*
X186793233Y-254500000D03*
%TD*%
D25*
%TO.C,REF\u002A\u002A*%
X415000000Y-109000000D03*
%TD*%
D11*
%TO.C,R1*%
X283588233Y-156625000D03*
D22*
X293748233Y-156625000D03*
%TD*%
D10*
%TO.C,U4*%
X285125000Y-230800000D03*
D22*
X287665000Y-230800000D03*
X290205000Y-230800000D03*
X292745000Y-230800000D03*
X295285000Y-230800000D03*
X297825000Y-230800000D03*
X300365000Y-230800000D03*
X302905000Y-230800000D03*
X302905000Y-223180000D03*
X300365000Y-223180000D03*
X297825000Y-223180000D03*
X295285000Y-223180000D03*
X292745000Y-223180000D03*
X290205000Y-223180000D03*
X287665000Y-223180000D03*
X285125000Y-223180000D03*
%TD*%
D10*
%TO.C,C16*%
X279963121Y-147625000D03*
D11*
X282463121Y-147625000D03*
%TD*%
D10*
%TO.C,C4*%
X207293233Y-185910225D03*
D11*
X207293233Y-183410225D03*
%TD*%
D18*
%TO.C,Servo1*%
X309793233Y-125000000D03*
D19*
X299793233Y-125000000D03*
%TD*%
D11*
%TO.C,R4*%
X332588233Y-215625000D03*
D22*
X342748233Y-215625000D03*
%TD*%
D10*
%TO.C,C9*%
X197293233Y-168865337D03*
D11*
X197293233Y-166365337D03*
%TD*%
D18*
%TO.C,RV1*%
X388293233Y-254000000D03*
D19*
X398293233Y-254000000D03*
X408293233Y-254000000D03*
%TD*%
D13*
%TO.C,SW1*%
X404750000Y-146700000D03*
X404750000Y-140200000D03*
X409250000Y-146700000D03*
X409250000Y-140200000D03*
%TD*%
M02*
