M48
; DRILL file {KiCad (6.0.4)} date Wed Jun  8 08:47:09 2022
; FORMAT={-:-/ absolute / metric / decimal}
; #@! TF.CreationDate,2022-06-08T08:47:09+05:30
; #@! TF.GenerationSoftware,Kicad,Pcbnew,(6.0.4)
; #@! TF.FileFunction,Plated,1,2,PTH
FMAT,2
METRIC
; #@! TA.AperFunction,Plated,PTH,ViaDrill
T1C0.400
; #@! TA.AperFunction,Plated,PTH,ComponentDrill
T2C0.750
; #@! TA.AperFunction,Plated,PTH,ComponentDrill
T3C0.800
; #@! TA.AperFunction,Plated,PTH,ComponentDrill
T4C1.000
; #@! TA.AperFunction,Plated,PTH,ComponentDrill
T5C1.100
; #@! TA.AperFunction,Plated,PTH,ComponentDrill
T6C1.600
; #@! TA.AperFunction,Plated,PTH,ComponentDrill
T7C2.200
%
G90
G05
T1
X206.793Y-171.0
X241.794Y-164.0
X252.793Y-155.0
X256.0Y-162.207
X256.0Y-201.0
X257.086Y-158.293
X258.38Y-155.586
X258.793Y-152.0
X259.793Y-152.0
X261.0Y-150.207
X263.0Y-158.793
X264.0Y-112.0
X264.0Y-134.0
X266.793Y-164.0
X268.0Y-138.0
X272.586Y-185.793
X276.25Y-186.457
X278.0Y-195.0
X279.0Y-201.0
X279.586Y-189.793
X285.793Y-185.0
X287.793Y-185.0
X289.094Y-184.0
X289.793Y-151.0
X293.586Y-196.207
X293.793Y-165.0
X294.586Y-192.207
X297.315Y-154.238
X298.586Y-184.793
X298.793Y-149.0
X298.793Y-163.0
X300.793Y-188.0
X303.0Y-185.0
X303.0Y-209.0
X304.0Y-165.0
X304.0Y-210.0
X305.793Y-158.0
X309.793Y-152.0
X310.793Y-152.0
X314.69Y-191.31
X316.917Y-174.917
X322.793Y-221.0
X323.793Y-204.0
X323.794Y-228.017
X324.0Y-179.0
X325.0Y-173.0
X332.0Y-180.0
X337.0Y-230.793
X338.0Y-173.1
X346.0Y-204.0
X347.0Y-236.0
X353.586Y-198.793
X354.0Y-205.0
X358.0Y-173.0
X360.103Y-206.103
X362.0Y-169.0
X362.793Y-172.0
X364.0Y-169.0
X365.793Y-190.0
X366.0Y-170.0
X367.0Y-171.0
X371.017Y-168.983
X373.207Y-172.586
X374.033Y-172.0
T2
X339.898Y-209.265
X341.168Y-209.265
X342.438Y-209.265
T3
X179.383Y-166.16
X179.383Y-168.66
X179.793Y-183.41
X179.793Y-185.91
X188.293Y-166.41
X188.293Y-168.91
X188.793Y-183.41
X188.793Y-185.91
X197.293Y-166.365
X197.293Y-168.865
X197.703Y-183.41
X197.703Y-185.91
X206.703Y-166.365
X206.703Y-168.865
X207.293Y-183.41
X207.293Y-185.91
X215.793Y-166.365
X215.793Y-168.865
X216.293Y-183.205
X216.293Y-185.705
X224.793Y-166.365
X224.793Y-168.865
X225.293Y-183.205
X225.293Y-185.705
X233.793Y-166.365
X233.793Y-168.865
X242.793Y-166.365
X242.793Y-168.865
X254.533Y-166.5
X254.533Y-181.74
X257.073Y-166.5
X257.073Y-181.74
X259.613Y-166.5
X259.613Y-181.74
X262.153Y-166.5
X262.153Y-181.74
X264.693Y-166.5
X264.693Y-181.74
X267.233Y-166.5
X267.233Y-181.74
X269.773Y-166.5
X269.773Y-181.74
X272.313Y-166.5
X272.313Y-181.74
X273.463Y-147.625
X274.768Y-157.125
X274.853Y-166.5
X274.853Y-181.74
X275.963Y-147.625
X277.393Y-166.5
X277.393Y-181.74
X278.568Y-157.125
X279.933Y-166.5
X279.933Y-181.74
X279.963Y-147.625
X282.463Y-147.625
X282.473Y-166.5
X282.473Y-181.74
X283.588Y-156.625
X285.013Y-166.5
X285.013Y-181.74
X285.125Y-223.18
X285.125Y-230.8
X286.668Y-147.625
X287.553Y-166.5
X287.553Y-181.74
X287.665Y-223.18
X287.665Y-230.8
X289.168Y-147.625
X290.093Y-166.5
X290.093Y-181.74
X290.205Y-223.18
X290.205Y-230.8
X292.633Y-166.5
X292.633Y-181.74
X292.745Y-223.18
X292.745Y-230.8
X293.748Y-156.625
X295.173Y-166.5
X295.173Y-181.74
X295.285Y-223.18
X295.285Y-230.8
X297.713Y-166.5
X297.713Y-181.74
X297.825Y-223.18
X297.825Y-230.8
X300.253Y-166.5
X300.253Y-181.74
X300.365Y-223.18
X300.365Y-230.8
X302.793Y-166.5
X302.793Y-181.74
X302.905Y-223.18
X302.905Y-230.8
X310.533Y-166.5
X310.533Y-181.74
X313.073Y-166.5
X313.073Y-181.74
X315.613Y-166.5
X315.613Y-181.74
X318.153Y-166.5
X318.153Y-181.74
X320.693Y-166.5
X320.693Y-181.74
X323.233Y-166.5
X323.233Y-181.74
X325.773Y-166.5
X325.773Y-181.74
X325.868Y-193.805
X325.868Y-201.425
X326.463Y-147.625
X327.768Y-157.625
X328.313Y-166.5
X328.313Y-181.74
X328.408Y-193.805
X328.408Y-201.425
X328.963Y-147.625
X330.853Y-166.5
X330.853Y-181.74
X330.948Y-193.805
X330.948Y-201.425
X331.568Y-157.625
X332.588Y-215.625
X332.588Y-221.625
X333.168Y-147.625
X333.393Y-166.5
X333.393Y-181.74
X333.488Y-193.805
X333.488Y-201.425
X335.668Y-147.625
X335.933Y-166.5
X335.933Y-181.74
X336.668Y-157.125
X338.473Y-166.5
X338.473Y-181.74
X339.668Y-147.625
X340.293Y-193.805
X340.293Y-201.425
X341.013Y-166.5
X341.013Y-181.74
X342.168Y-147.625
X342.748Y-215.625
X342.748Y-221.625
X342.833Y-193.805
X342.833Y-201.425
X343.553Y-166.5
X343.553Y-181.74
X345.373Y-193.805
X345.373Y-201.425
X346.093Y-166.5
X346.093Y-181.74
X346.828Y-157.125
X347.913Y-193.805
X347.913Y-201.425
X348.633Y-166.5
X348.633Y-181.74
X350.453Y-193.805
X350.453Y-201.425
X351.173Y-166.5
X351.173Y-181.74
X352.993Y-193.805
X352.993Y-201.425
X353.713Y-166.5
X353.713Y-181.74
X355.533Y-193.805
X355.533Y-201.425
X356.253Y-166.5
X356.253Y-181.74
X358.073Y-193.805
X358.073Y-201.425
X358.793Y-166.5
X358.793Y-181.74
T4
X349.868Y-213.625
X352.168Y-226.125
X354.668Y-231.125
X357.168Y-226.125
X357.468Y-213.625
X385.543Y-118.975
X388.083Y-118.975
X408.668Y-194.585
X408.668Y-197.125
X408.668Y-199.665
X408.668Y-202.205
T5
X192.253Y-176.945
X194.793Y-176.945
X197.333Y-176.945
X203.92Y-175.0
X206.46Y-175.0
X209.0Y-175.0
X214.92Y-175.0
X217.46Y-175.0
X220.0Y-175.0
X404.75Y-140.2
X404.75Y-146.7
X404.75Y-150.75
X404.75Y-157.25
X409.25Y-140.2
X409.25Y-146.7
X409.25Y-150.75
X409.25Y-157.25
T6
X200.993Y-135.0
X256.593Y-135.0
T7
X186.793Y-254.5
X188.793Y-228.0
X188.793Y-238.0
X196.793Y-254.5
X206.793Y-254.5
X216.793Y-254.5
X226.793Y-254.5
X236.793Y-254.5
X246.793Y-254.5
X256.793Y-254.5
X266.793Y-254.5
X274.793Y-125.0
X276.793Y-254.5
X284.793Y-125.0
X286.793Y-254.5
X296.793Y-254.5
X299.793Y-125.0
X306.793Y-254.5
X309.793Y-125.0
X316.793Y-254.5
X324.293Y-125.0
X326.793Y-254.5
X334.293Y-125.0
X336.793Y-254.5
X344.293Y-125.0
X351.793Y-254.5
X354.293Y-125.0
X361.793Y-254.5
X364.293Y-125.0
X374.293Y-125.0
X388.293Y-254.0
X398.293Y-254.0
X402.168Y-173.625
X402.168Y-183.625
X408.293Y-254.0
T0
M30
